first trial
nRows=22
nColumns=38

# SIMM Motion File Header:
name Sujet_03_velo_80.mvnx
datacolumns 38
datarows 22
otherdata 1
range 11.7000 12.0500
endheader
time pelvis_tilt  pelvis_list  pelvis_rotation  pelvis_tx  pelvis_ty  pelvis_tz  hip_flexion_r  hip_adduction_r  hip_rotation_r  knee_angle_r  ankle_angle_r  subtalar_angle_r  mtp_angle_r  hip_flexion_l  hip_adduction_l  hip_rotation_l  knee_angle_l  ankle_angle_l  subtalar_angle_l  mtp_angle_l  lumbar_extension  lumbar_bending  lumbar_rotation  arm_flex_r  arm_add_r  arm_rot_r  elbow_flex_r  pro_sup_r  wrist_flex_r  wrist_dev_r  arm_flex_l  arm_add_l  arm_rot_l  elbow_flex_l  pro_sup_l  wrist_flex_l  wrist_dev_l
11.7000	-19.7538	-1.7350	-88.1621	0.0000	1.2500	-0.0000	63.2486	0.8778	-8.2831	53.6820	-4.3140	-0.2290	0.0000	69.9453	-11.3179	1.7897	97.9345	5.2702	-5.1119	-0.0000	-14.5070	-1.0434	0.3633	73.5300	8.2689	12.7654	-3.0233	70.4746	-20.7042	-16.7527	77.7358	-0.4333	18.8931	-0.3306	75.0448	-27.0635	-15.9524	
11.7160	-19.7795	-1.5436	-87.3814	0.0000	1.2500	-0.0000	60.2744	0.7138	-8.0437	50.3440	-5.7729	-0.1905	-0.0000	72.7821	-11.1839	1.2952	100.8604	5.6769	-5.6551	-0.0000	-14.4673	-0.9511	0.1655	73.3669	8.0510	12.8127	-3.1664	70.3067	-20.5549	-16.7414	77.8574	-0.3590	18.8650	-0.3384	75.2284	-27.1752	-15.9492	
11.7330	-19.8071	-1.3739	-86.5588	0.0000	1.2500	-0.0000	57.5138	0.5732	-7.6063	47.6460	-7.1658	-0.4339	-0.0000	75.6463	-10.9496	0.5456	103.3855	6.3305	-5.9577	0.0000	-14.4266	-0.8364	-0.0417	73.1444	7.8232	13.0012	-3.2783	69.9986	-20.4128	-16.7586	77.9766	-0.2643	18.8360	-0.3212	75.4296	-27.2978	-15.9413	
11.7500	-19.8298	-1.1920	-85.8514	0.0000	1.2500	-0.0000	55.1251	0.4818	-7.2388	45.7111	-8.3245	-0.7496	-0.0000	78.3338	-10.6725	-0.2311	105.3038	6.9924	-6.3520	-0.0000	-14.3881	-0.7516	-0.2337	72.9163	7.6382	13.2015	-3.3480	69.7000	-20.3016	-16.7888	78.0572	-0.1928	18.7737	-0.2877	75.6493	-27.4116	-15.9267	
11.7660	-19.8441	-0.9841	-85.3114	0.0000	1.2500	-0.0000	53.1557	0.4847	-6.9965	44.6096	-9.2192	-1.1294	-0.0000	80.8521	-10.3397	-1.0287	106.5601	7.6200	-7.0000	-0.0000	-14.3500	-0.7161	-0.4057	72.6766	7.5113	13.3912	-3.3611	69.4415	-20.2374	-16.8413	78.0629	-0.1502	18.6650	-0.2241	75.8937	-27.5139	-15.8987	
11.7830	-19.8542	-0.7644	-84.8871	0.0000	1.2500	-0.0000	51.5611	0.5321	-6.7977	44.2726	-9.8746	-1.5801	-0.0000	83.2048	-9.9742	-1.8371	107.2343	8.2495	-7.7374	0.0000	-14.3148	-0.7101	-0.5622	72.4316	7.4271	13.5935	-3.3302	69.1931	-20.2041	-16.9070	78.0301	-0.1311	18.5232	-0.1447	76.1564	-27.6072	-15.8640	
11.8000	-19.8641	-0.5422	-84.5797	0.0000	1.2500	-0.0000	50.3664	0.5188	-6.7012	44.6159	-10.2148	-1.9557	-0.0000	85.1919	-9.6561	-2.3941	107.3177	8.7704	-8.4210	0.0000	-14.2928	-0.7268	-0.6932	72.2530	7.3924	13.7483	-3.2822	69.0141	-20.1768	-16.9433	78.0322	-0.1618	18.3562	-0.0996	76.4196	-27.6799	-15.8404	
11.8160	-19.8725	-0.3049	-84.4148	0.0000	1.2500	-0.0000	49.5914	0.4071	-6.7888	45.6716	-10.1714	-2.2516	0.0000	86.7968	-9.3835	-2.5633	106.7941	9.1910	-9.1156	0.0000	-14.2902	-0.7783	-0.7935	72.1731	7.4238	13.8181	-3.2129	68.9433	-20.1515	-16.9299	78.1088	-0.2776	18.1277	-0.1139	76.7236	-27.7244	-15.8338	
11.8330	-19.8819	-0.0651	-84.3666	0.0000	1.2500	-0.0000	49.2180	0.2353	-6.9724	47.4091	-9.8134	-2.5093	-0.0000	88.0417	-9.1261	-2.4568	105.6678	9.5076	-9.7696	0.0000	-14.3008	-0.8522	-0.8684	72.1593	7.5047	13.8409	-3.1264	68.9421	-20.1322	-16.8871	78.2202	-0.4434	17.8742	-0.1616	77.0288	-27.7483	-15.8383	
11.8500	-19.9023	0.1301	-84.3592	0.0000	1.2500	-0.0000	49.2144	0.0142	-7.0615	49.6482	-9.2742	-2.6691	-0.0000	88.7818	-8.9074	-2.1806	103.9546	9.6042	-10.0729	0.0000	-14.3158	-0.9041	-0.9235	72.1858	7.5920	13.8692	-3.0630	68.9533	-20.1061	-16.8330	78.3213	-0.5792	17.7120	-0.2145	77.1983	-27.7622	-15.8543	
11.8660	-19.9413	0.2783	-84.3893	0.0000	1.2500	-0.0000	49.6073	-0.2721	-7.0166	52.3819	-8.5778	-2.7072	-0.0000	88.9644	-8.7494	-1.6317	101.6181	9.4017	-9.8367	0.0000	-14.3371	-0.9263	-0.9562	72.2637	7.6754	13.9315	-3.0402	68.9494	-20.0607	-16.7624	78.4080	-0.6539	17.6991	-0.2678	77.1544	-27.7669	-15.8883	
11.8830	-19.9914	0.3819	-84.4600	0.0000	1.2500	-0.0000	50.3713	-0.6042	-6.8703	55.6087	-7.6824	-2.6632	-0.0000	88.6408	-8.6310	-0.9064	98.6951	8.9909	-9.2572	0.0000	-14.3627	-0.9265	-0.9692	72.3815	7.7656	13.9993	-3.0404	68.9579	-20.0086	-16.6806	78.4851	-0.6984	17.7772	-0.3254	76.9747	-27.7615	-15.9337	
11.9000	-20.0389	0.4004	-84.5047	0.0000	1.2500	-0.0000	51.3963	-0.9176	-6.5427	59.1525	-6.6330	-2.5607	-0.0000	87.8246	-8.5164	-0.4120	95.3191	8.5106	-8.5934	-0.0000	-14.3787	-0.8838	-0.9758	72.4795	7.8509	14.0401	-3.0520	69.0039	-19.9743	-16.6213	78.5212	-0.7253	17.8879	-0.3714	76.7549	-27.7543	-15.9708	
11.9160	-20.0796	0.3038	-84.4722	0.0000	1.2500	-0.0000	52.6552	-1.1891	-5.9294	63.0213	-5.3894	-2.3630	-0.0000	86.4899	-8.3949	-0.2862	91.4604	7.9378	-7.8512	-0.0000	-14.3772	-0.7765	-0.9863	72.5306	7.9232	14.0301	-3.0832	69.1108	-19.9672	-16.6004	78.4939	-0.7365	18.0607	-0.4009	76.4757	-27.7520	-15.9929	
11.9330	-20.1179	0.1223	-84.4137	0.0000	1.2500	-0.0000	54.1772	-1.4302	-5.1349	67.2012	-3.9962	-2.0939	-0.0000	84.6651	-8.2766	-0.3861	87.1577	7.2924	-7.0146	-0.0000	-14.3660	-0.6262	-0.9903	72.5622	7.9903	13.9929	-3.1259	69.2551	-19.9778	-16.6019	78.4257	-0.7296	18.2663	-0.4197	76.1561	-27.7478	-16.0067	
11.9500	-20.1541	-0.0943	-84.4166	0.0000	1.2500	-0.0000	55.9357	-1.6317	-4.3966	71.4990	-2.6487	-1.8601	0.0000	82.4481	-8.1440	-0.6991	82.6479	6.7780	-6.3027	0.0000	-14.3549	-0.4772	-0.9703	72.5961	8.0650	13.9671	-3.1444	69.3926	-20.0022	-16.6121	78.3519	-0.7096	18.3588	-0.4282	75.9487	-27.7298	-16.0127	
11.9660	-20.1878	-0.3390	-84.5002	0.0000	1.2500	-0.0000	57.9466	-1.8003	-3.7488	75.9589	-1.3521	-1.6818	-0.0000	79.8034	-7.9625	-1.2936	77.9366	6.5790	-5.8493	-0.0000	-14.3485	-0.3374	-0.9203	72.6422	8.1404	13.9753	-3.1235	69.4954	-20.0325	-16.6224	78.2997	-0.6703	18.2184	-0.4237	75.9804	-27.6920	-16.0079	
11.9830	-20.2188	-0.6189	-84.6450	0.0000	1.2500	-0.0000	60.1938	-1.9271	-3.1653	80.5539	-0.1158	-1.5317	0.0000	76.7711	-7.7307	-2.1031	73.0192	6.5087	-5.5038	0.0000	-14.3425	-0.1988	-0.8463	72.6907	8.2235	13.9949	-3.0786	69.5914	-20.0767	-16.6414	78.2420	-0.6178	17.9649	-0.4074	76.1245	-27.6404	-15.9954	
12.0000	-20.2473	-0.9038	-84.8799	0.0000	1.2500	-0.0000	62.6001	-1.9930	-2.7965	84.9830	0.8535	-1.4466	0.0000	73.5605	-7.4862	-2.9219	68.1155	6.2218	-5.0712	-0.0000	-14.3338	-0.0820	-0.7484	72.7337	8.3476	13.9959	-3.0191	69.7194	-20.1538	-16.6808	78.1316	-0.5747	17.8111	-0.3854	76.1530	-27.5815	-15.9845	
12.0160	-20.2703	-1.1911	-85.2279	0.0000	1.2500	-0.0000	65.1920	-2.0196	-2.7379	89.2120	1.3416	-1.4181	-0.0000	70.1240	-7.2169	-3.8071	63.1187	5.5235	-4.3939	-0.0000	-14.3205	0.0086	-0.6224	72.7595	8.5324	13.9623	-2.9421	69.9083	-20.2785	-16.7554	77.9475	-0.5589	17.8783	-0.3640	75.9376	-27.5147	-15.9773	
12.0330	-20.2892	-1.4837	-85.6659	0.0000	1.2500	-0.0000	67.9379	-2.0082	-2.9109	93.2530	1.5634	-1.4491	-0.0000	66.5135	-6.9104	-4.7143	58.1374	4.6117	-3.6372	-0.0000	-14.3046	0.0777	-0.4724	72.7799	8.7582	13.9103	-2.8512	70.1293	-20.4361	-16.8502	77.7108	-0.5525	18.0455	-0.3394	75.6061	-27.4406	-15.9717	
12.0500	-20.3122	-1.7599	-86.1528	0.0000	1.2500	-0.0000	70.6728	-1.9108	-3.2048	96.8743	1.9582	-1.5992	-0.0000	63.0755	-6.6597	-5.2956	53.7147	3.7315	-3.1057	-0.0000	-14.2884	0.1185	-0.3112	72.8221	8.9995	13.8576	-2.7655	70.3351	-20.6021	-16.9319	77.4376	-0.5242	18.1621	-0.3034	75.3150	-27.3676	-15.9710	
